 <svg id="Category" xmlns="http://www.w3.org/2000/svg" width="29.968" height="29.968" viewBox="0 0 29.968 29.968">
  <path id="Category-2" data-name="Category" d="M20.957,29.968A4.478,4.478,0,0,1,16.5,25.48V20.89A4.479,4.479,0,0,1,20.957,16.4h4.554a4.478,4.478,0,0,1,4.457,4.489V25.48a4.477,4.477,0,0,1-4.457,4.488ZM18.589,20.89V25.48a2.386,2.386,0,0,0,2.368,2.4h4.554a2.385,2.385,0,0,0,2.367-2.4V20.89a2.386,2.386,0,0,0-2.367-2.4H20.957A2.387,2.387,0,0,0,18.589,20.89ZM4.458,29.968A4.478,4.478,0,0,1,0,25.48V20.89A4.479,4.479,0,0,1,4.458,16.4H9.011A4.479,4.479,0,0,1,13.47,20.89V25.48a4.478,4.478,0,0,1-4.458,4.488ZM2.09,20.89V25.48a2.386,2.386,0,0,0,2.368,2.4H9.011a2.386,2.386,0,0,0,2.368-2.4V20.89a2.387,2.387,0,0,0-2.368-2.4H4.458A2.387,2.387,0,0,0,2.09,20.89Zm18.867-7.321A4.478,4.478,0,0,1,16.5,9.08V4.488A4.478,4.478,0,0,1,20.957,0h4.554a4.477,4.477,0,0,1,4.457,4.488V9.08a4.477,4.477,0,0,1-4.457,4.488Zm-2.368-9.08V9.08a2.386,2.386,0,0,0,2.368,2.4h4.554a2.385,2.385,0,0,0,2.367-2.4V4.488a2.385,2.385,0,0,0-2.367-2.4H20.957A2.386,2.386,0,0,0,18.589,4.488Zm-14.13,9.08A4.478,4.478,0,0,1,0,9.08V4.488A4.478,4.478,0,0,1,4.458,0H9.011A4.478,4.478,0,0,1,13.47,4.488V9.08a4.478,4.478,0,0,1-4.458,4.488ZM2.09,4.488V9.08a2.386,2.386,0,0,0,2.368,2.4H9.011a2.386,2.386,0,0,0,2.368-2.4V4.488a2.386,2.386,0,0,0-2.368-2.4H4.458A2.386,2.386,0,0,0,2.09,4.488Z" fill="#fff"/>
</svg>
