<svg xmlns="http://www.w3.org/2000/svg" width="18" height="18" viewBox="0 0 18 18">
  <path id="Close_Square" data-name="Close Square" d="M12.906,18H5.1C2.051,18,0,15.863,0,12.682V5.328C0,2.141,2.051,0,5.1,0h7.8C15.953,0,18,2.141,18,5.328v7.354C18,15.863,15.953,18,12.906,18ZM9,10.108H9L10.6,11.7a.733.733,0,0,0,.549.235.786.786,0,0,0,.558-.235.782.782,0,0,0,0-1.106l-1.6-1.6,1.6-1.6a.788.788,0,0,0-.555-1.345.8.8,0,0,0-.561.23L9,7.875l-1.6-1.6a.8.8,0,0,0-.561-.23.789.789,0,0,0-.554,1.345l1.6,1.6-1.6,1.593a.792.792,0,0,0,.557,1.349A.786.786,0,0,0,7.4,11.7L9,10.109Z" fill="#ff6056"/>
</svg>
