<svg id="Iconly_Bold_Arrow_-_Left" data-name="Iconly/Bold/Arrow - Left"
    xmlns="http://www.w3.org/2000/svg" width="20.374" height="12" viewBox="0 0 20.374 12">
    <g id="Arrow_-_Left" data-name="Arrow - Left" transform="translate(0)">
        <path id="Arrow_-_Left-2" data-name="Arrow - Left"
            d="M7.942,12A5.023,5.023,0,0,1,6.6,11.592,22.626,22.626,0,0,1,1.006,7.8l-.379-.4a3.6,3.6,0,0,1-.281-.334A1.771,1.771,0,0,1,0,6.008,1.853,1.853,0,0,1,.375,4.87l.39-.42.087-.09A22.081,22.081,0,0,1,6.743.336L6.987.242A4.065,4.065,0,0,1,7.942,0a2,2,0,0,1,.91.22,1.883,1.883,0,0,1,.808.9,9.781,9.781,0,0,1,.261,1.065,22.351,22.351,0,0,1,.243,3.451v.354a27.187,27.187,0,0,1-.216,3.688l-.113.544a3.9,3.9,0,0,1-.233.784A1.815,1.815,0,0,1,8,12Zm5.295-4.809c-.894,0-1.618-.533-1.618-1.191s.724-1.191,1.618-1.191l5.076-.327c1.139,0,2.062.68,2.062,1.517s-.923,1.518-2.062,1.518Z"
            transform="translate(0)" fill="#f7f9fd" />
    </g>
</svg>
