<svg id="Iconly_Light-outline_Home" data-name="Iconly/Light-outline/Home" xmlns="http://www.w3.org/2000/svg" width="29.503" height="31" viewBox="0 0 29.503 31">
  <g id="Home">
    <path id="Home-2" data-name="Home" d="M23.727,31h-3.09a2.827,2.827,0,0,1-2.78-2.619l-.015-.218V23.731A.984.984,0,0,0,17,22.769l-.14-.015H12.716a.984.984,0,0,0-.961.837l-.015.141V28.15a1.638,1.638,0,0,1-.031.278l-.015.032-.018.107a2.812,2.812,0,0,1-2.622,2.419L8.85,31H6.071A6.069,6.069,0,0,1,0,25.265V12.385a4.611,4.611,0,0,1,1.553-3.4l9.673-7.765A5.65,5.65,0,0,1,18,1.035l.25.187L27.7,8.773a4.665,4.665,0,0,1,1.787,3.3l.015.313v12.57A6.074,6.074,0,0,1,23.727,31ZM12.484,20.6h4.38A3.159,3.159,0,0,1,20,23.5v4.665a.676.676,0,0,0,.544.665H23.43a3.889,3.889,0,0,0,3.9-3.627l.018-.247V12.4a2.51,2.51,0,0,0-.777-1.751l-.2-.172L16.894,2.912a3.463,3.463,0,0,0-2.16-.75A3.509,3.509,0,0,0,12.8,2.74l-.235.172-9.442,7.6a2.406,2.406,0,0,0-.945,1.642l-.018.248V24.955a3.9,3.9,0,0,0,3.667,3.874H8.85a.664.664,0,0,0,.682-.555l.032-.279.017-.08V23.731A3.12,3.12,0,0,1,12.484,20.6Z" fill="#b7b7b7"/>
  </g>
</svg>
