<svg id="Iconly_Bold_Call" data-name="Iconly/Bold/Call" xmlns="http://www.w3.org/2000/svg" width="24" height="24" viewBox="0 0 24 24">
  <g id="Call">
    <path id="Call-2" data-name="Call" d="M19.4,14.855a2.735,2.735,0,0,0-2.008.528c-.578.337-1.678,1.229-2.308,1A14.318,14.318,0,0,1,7.509,8.991c-.232-.644.656-1.75.991-2.335a2.8,2.8,0,0,0,.524-2.022,16.446,16.446,0,0,0-2.8-3.9A2.3,2.3,0,0,0,4.826,0C3.024-.076,1.012,2.328.659,2.9-.225,4.13-.22,5.761.674,7.74c2.154,5.314,10.3,13.334,15.637,15.569A6.446,6.446,0,0,0,19,24a3.5,3.5,0,0,0,2.1-.659c.457-.263,2.959-2.375,2.894-4.225a2.329,2.329,0,0,0-.729-1.4A16.561,16.561,0,0,0,19.4,14.855" transform="translate(0)" fill="#ededef"/>
  </g>
</svg>
