<svg id="Iconly_Bold_Info_Square" data-name="Iconly/Bold/Info Square" xmlns="http://www.w3.org/2000/svg" width="24" height="24" viewBox="0 0 24 24">
  <g id="Info_Square" data-name="Info Square">
    <path id="Info_Square-2" data-name="Info Square" d="M17.208,24H6.8C2.734,24,0,21.151,0,16.91V7.1C0,2.855,2.734,0,6.8,0h10.4C21.27,0,24,2.855,24,7.1V16.91C24,21.151,21.27,24,17.208,24Zm-5.22-13.823a1.052,1.052,0,0,0-1.044,1.056v5.3a1.05,1.05,0,0,0,2.1,0v-5.3A1.057,1.057,0,0,0,11.988,10.177Zm.024-3.8a1.05,1.05,0,1,0,1.044,1.056A1.045,1.045,0,0,0,12.012,6.373Z" fill="#fff"/>
  </g>
</svg>
