<svg id="Iconly_Bold_Location" data-name="Iconly/Bold/Location" xmlns="http://www.w3.org/2000/svg" width="19" height="22" viewBox="0 0 19 22">
  <g id="Location">
    <path id="Location-2" data-name="Location" d="M9.5,22a1.534,1.534,0,0,1-.82-.272,23.9,23.9,0,0,1-6.192-5.655A11.31,11.31,0,0,1,0,9.15,8.917,8.917,0,0,1,2.8,2.677,9.614,9.614,0,0,1,9.492,0,9.344,9.344,0,0,1,19,9.15a11.316,11.316,0,0,1-2.493,6.923,24.352,24.352,0,0,1-6.193,5.655A1.49,1.49,0,0,1,9.5,22ZM9.492,6.355a3.108,3.108,0,0,0-3.128,3.08,2.96,2.96,0,0,0,.918,2.15,3.167,3.167,0,0,0,2.21.879,3.091,3.091,0,0,0,3.143-3.028,3.026,3.026,0,0,0-.925-2.171A3.15,3.15,0,0,0,9.492,6.355Z" fill="#ededef"/>
  </g>
</svg>
