<svg id="Iconly_Bold_Category" data-name="Iconly/Bold/Category" xmlns="http://www.w3.org/2000/svg" width="30" height="30" viewBox="0 0 30 30">
  <g id="Category" transform="translate(0 0)">
    <path id="Category-2" data-name="Category" d="M21.121,30a3.823,3.823,0,0,1-3.811-3.841V21.047A3.815,3.815,0,0,1,21.121,17.2H26.19A3.823,3.823,0,0,1,30,21.047v5.112A3.831,3.831,0,0,1,26.19,30ZM3.81,30A3.832,3.832,0,0,1,0,26.159V21.047A3.824,3.824,0,0,1,3.81,17.2H8.88a3.814,3.814,0,0,1,3.81,3.842v5.112A3.823,3.823,0,0,1,8.88,30ZM21.121,12.8A3.813,3.813,0,0,1,17.31,8.955V3.842A3.823,3.823,0,0,1,21.121,0H26.19A3.832,3.832,0,0,1,30,3.842V8.955A3.822,3.822,0,0,1,26.19,12.8ZM3.81,12.8A3.823,3.823,0,0,1,0,8.955V3.842A3.832,3.832,0,0,1,3.81,0H8.88a3.823,3.823,0,0,1,3.81,3.842V8.955A3.813,3.813,0,0,1,8.88,12.8Z" transform="translate(0 0)" fill="#fff"/>
  </g>
</svg>
