<svg id="Iconly_Bold_Add_User" data-name="Iconly/Bold/Add User" xmlns="http://www.w3.org/2000/svg" width="63" height="60" viewBox="0 0 63 60">
  <g id="Add_User" data-name="Add User">
    <path id="Add_User-2" data-name="Add User" d="M0,49.726c0-8.163,10.881-10.2,23.624-10.2,12.811,0,23.627,2.112,23.627,10.274S36.368,60,23.624,60C10.816,60,0,57.883,0,49.726ZM50.716,31.857V28.14H46.931a2.88,2.88,0,0,1,0-5.758h3.785V18.667a2.833,2.833,0,1,1,5.664,0v3.715h3.788a2.879,2.879,0,0,1,0,5.758H56.38v3.717a2.833,2.833,0,1,1-5.664,0ZM7.992,15.873a15.634,15.634,0,1,1,31.265,0,15.634,15.634,0,1,1-31.265,0Z" fill="#b7b7b7"/>
  </g>
</svg>
