<svg id="Iconly_Bold_Home" data-name="Iconly/Bold/Home" xmlns="http://www.w3.org/2000/svg" width="29.502" height="31" viewBox="0 0 29.502 31">
  <g id="Home">
    <path id="Home-2" data-name="Home" d="M10.3,29.1V24.359a2.2,2.2,0,0,1,2.211-2.191h4.463a2.221,2.221,0,0,1,1.563.642,2.181,2.181,0,0,1,.647,1.549V29.1a1.879,1.879,0,0,0,.553,1.344A1.914,1.914,0,0,0,21.091,31h3.045a5.378,5.378,0,0,0,3.794-1.549A5.28,5.28,0,0,0,29.5,25.7v-13.5a3.83,3.83,0,0,0-1.39-2.948l-10.358-8.2a4.816,4.816,0,0,0-6.131.11L1.5,9.245A3.832,3.832,0,0,0,0,12.194V25.682A5.343,5.343,0,0,0,5.367,31H8.342a1.91,1.91,0,0,0,1.919-1.888Z" fill="#fff"/>
  </g>
</svg>
