<svg id="Iconly_Bold_Edit" data-name="Iconly/Bold/Edit" xmlns="http://www.w3.org/2000/svg" width="16" height="16" viewBox="0 0 16 16">
  <g id="Edit" transform="translate(0)">
    <path id="Edit-2" data-name="Edit" d="M10.026,16a.91.91,0,0,1,0-1.819H15.1A.91.91,0,0,1,15.1,16ZM.754,15.623.046,12.556A1.9,1.9,0,0,1,.4,10.96L5.942,3.794a.278.278,0,0,1,.377-.048L8.649,5.6a.752.752,0,0,0,.575.162.84.84,0,0,0,.726-.927.936.936,0,0,0-.293-.564L7.394,2.456a.336.336,0,0,1-.057-.467L8.214.851A2.3,2.3,0,0,1,11.582.622l1.311,1.042a2.721,2.721,0,0,1,1.018,1.558,2.135,2.135,0,0,1-.434,1.815l-7.81,10.1a1.871,1.871,0,0,1-1.453.726L1.1,15.9A.355.355,0,0,1,.754,15.623Z" fill="#f7f9fd"/>
  </g>
</svg>
