<svg id="Iconly_Light-outline_Profile" data-name="Iconly/Light-outline/Profile" xmlns="http://www.w3.org/2000/svg" width="25" height="31.247" viewBox="0 0 25 31.247">
  <g id="Profile" transform="translate(0)">
    <path id="Profile-2" data-name="Profile" d="M10.431,31.191c-.188,0-.322,0-.444,0l-.225-.008a3.46,3.46,0,0,1-.63-.073,24.062,24.062,0,0,1-3.645-.529l-.4-.084c-2.42-.536-3.941-1.509-4.649-2.971A4.587,4.587,0,0,1,0,25.565a4.493,4.493,0,0,1,.449-1.974c.73-1.465,2.461-2.517,5.006-3.043a26.16,26.16,0,0,1,3.655-.517c1.122-.1,2.262-.148,3.39-.148s2.268.049,3.39.148l.72.06a26.9,26.9,0,0,1,2.926.456c2.7.555,4.294,1.53,5.023,3.065a4.55,4.55,0,0,1,0,3.912c-.724,1.528-2.362,2.525-5,3.046l-.731.152a24.55,24.55,0,0,1-2.937.382c-1.118.1-2.253.143-3.372.143C11.816,31.247,11.114,31.229,10.431,31.191ZM9.285,22.286a24.261,24.261,0,0,0-3.369.477c-1.769.364-3.056,1.046-3.445,1.825a2.214,2.214,0,0,0-.218.974,2.268,2.268,0,0,0,.217.98c.4.824,1.6,1.453,3.48,1.82l.551.117a24.228,24.228,0,0,0,2.928.389,2.875,2.875,0,0,0,.449.052l.614.01c.671.037,1.353.055,2.025.055,1.059,0,2.135-.045,3.2-.136a22.411,22.411,0,0,0,3.378-.492l.352-.075c1.658-.375,2.724-.974,3.082-1.731a2.285,2.285,0,0,0,0-1.967c-.382-.806-1.575-1.437-3.451-1.824a24.335,24.335,0,0,0-3.362-.474l-.02,0c-1.055-.093-2.126-.139-3.183-.139S10.355,22.192,9.285,22.286ZM4.206,8.336a8.3,8.3,0,1,1,8.3,8.336A8.327,8.327,0,0,1,4.206,8.336Zm2.253,0a6.048,6.048,0,1,0,6.048-6.073A6.067,6.067,0,0,0,6.458,8.336Z" fill="#fff"/>
  </g>
</svg>
