<svg xmlns="http://www.w3.org/2000/svg" width="18.003" height="17.997" viewBox="0 0 18.003 17.997">
  <g id="load" transform="translate(0 511.827)">
    <path id="Path_16383" data-name="Path 16383" d="M231.566-511.773a1.042,1.042,0,0,0-.3.2c-.267.264-.264.239-.264,2.374s0,2.11.264,2.374a.862.862,0,0,0,1.231,0c.267-.264.264-.239.264-2.374s0-2.11-.264-2.374A.877.877,0,0,0,231.566-511.773Z" transform="translate(-222.875)" fill="#2e99ff"/>
    <path id="Path_16384" data-name="Path 16384" d="M67.729-444.844a.911.911,0,0,0-.573.573.776.776,0,0,0,.007.542c.053.179.12.253,1.414,1.555,1.5,1.5,1.544,1.537,1.92,1.537a.843.843,0,0,0,.865-.865c0-.376-.035-.422-1.537-1.92-1.3-1.294-1.375-1.361-1.555-1.414A.776.776,0,0,0,67.729-444.844Z" transform="translate(-64.75 -64.583)" fill="#2e99ff"/>
    <path id="Path_16385" data-name="Path 16385" d="M327.078-444.63c-.158.049-.3.179-1.54,1.414-1.5,1.5-1.537,1.544-1.537,1.92a.8.8,0,0,0,.267.626.788.788,0,0,0,.6.239c.369,0,.419-.042,1.913-1.537,1.336-1.344,1.361-1.368,1.417-1.572A.879.879,0,0,0,327.078-444.63Z" transform="translate(-312.604 -64.791)" fill="#2e99ff"/>
    <path id="Path_16386" data-name="Path 16386" d="M.566-280.866a.928.928,0,0,0-.566.819.93.93,0,0,0,.264.616c.264.267.239.264,2.374.264s2.11,0,2.374-.264a.862.862,0,0,0,0-1.231c-.264-.267-.236-.264-2.388-.26A11.516,11.516,0,0,0,.566-280.866Z" transform="translate(0 -222.783)" fill="#2e99ff"/>
    <path id="Path_16387" data-name="Path 16387" d="M362.566-280.866a.928.928,0,0,0-.566.819.93.93,0,0,0,.264.616c.264.267.239.264,2.374.264s2.11,0,2.374-.264a.862.862,0,0,0,0-1.231c-.264-.267-.236-.264-2.388-.26A11.516,11.516,0,0,0,362.566-280.866Z" transform="translate(-349.268 -222.783)" fill="#2e99ff"/>
    <path id="Path_16388" data-name="Path 16388" d="M71.016-187.965a31.738,31.738,0,0,0-2.895,2.9.982.982,0,0,0-.007.721,1.068,1.068,0,0,0,.468.457,1.032,1.032,0,0,0,.7-.021,31.736,31.736,0,0,0,2.9-2.895.925.925,0,0,0,.021-.742A.879.879,0,0,0,71.016-187.965Z" transform="translate(-65.656 -312.384)" fill="#2e99ff"/>
    <path id="Path_16389" data-name="Path 16389" d="M325.333-186.928a.875.875,0,0,0-.39,1.14,30.972,30.972,0,0,0,2.859,2.867.855.855,0,0,0,.964-.134.8.8,0,0,0,.288-.644c0-.376-.039-.426-1.484-1.868a12.458,12.458,0,0,0-1.47-1.379A.927.927,0,0,0,325.333-186.928Z" transform="translate(-313.438 -313.383)" fill="#2e99ff"/>
    <path id="Path_16390" data-name="Path 16390" d="M231.566-149.773a1.043,1.043,0,0,0-.3.2c-.267.264-.264.239-.264,2.374s0,2.11.264,2.374a.862.862,0,0,0,1.231,0c.267-.264.264-.239.264-2.374s0-2.11-.264-2.374A.877.877,0,0,0,231.566-149.773Z" transform="translate(-222.875 -349.268)" fill="#2e99ff"/>
  </g>
</svg>
