<svg id="Logout" xmlns="http://www.w3.org/2000/svg" width="24" height="24" viewBox="0 0 24 24">
  <path id="Fill_1" data-name="Fill 1" d="M0,5.336A5.391,5.391,0,0,1,5.429,0h5.953A5.377,5.377,0,0,1,16.8,5.324V18.664A5.39,5.39,0,0,1,11.369,24H5.418A5.377,5.377,0,0,1,0,18.676V5.336Z" fill="#ff6056"/>
  <path id="Fill_3" data-name="Fill 3" d="M15.576,3.761,12.162.27a.883.883,0,0,0-1.273,0,.942.942,0,0,0,0,1.307l1.871,1.912H.9a.924.924,0,0,0,0,1.848H12.762L10.891,7.25a.942.942,0,0,0,0,1.307.882.882,0,0,0,1.273,0l3.415-3.49a.94.94,0,0,0,0-1.309" transform="translate(8.158 7.585)" fill="#ff6056"/>
</svg>
